<svg width="33" height="32" viewBox="0 0 33 32" fill="white" xmlns="http://www.w3.org/2000/svg">
<path d="M17.8334 11.8319C20.1337 11.2398 21.8334 9.1517 21.8334 6.66658C21.8334 3.72107 19.4456 1.33325 16.5001 1.33325C13.5546 1.33325 11.1667 3.72107 11.1667 6.66658C11.1667 9.1517 12.8664 11.2398 15.1667 11.8319V14.6666H11.1667C8.95761 14.6666 7.16675 16.4574 7.16675 18.6666V20.1679C4.86645 20.76 3.16675 22.8481 3.16675 25.3333C3.16675 28.2788 5.55456 30.6666 8.50008 30.6666C11.4456 30.6666 13.8334 28.2788 13.8334 25.3333C13.8334 22.8481 12.1337 20.76 9.83342 20.1679V18.6666C9.83342 17.9302 10.4304 17.3333 11.1667 17.3333H21.8334C22.5698 17.3333 23.1667 17.9302 23.1667 18.6666V20.1679C20.8664 20.76 19.1667 22.8481 19.1667 25.3333C19.1667 28.2788 21.5546 30.6666 24.5001 30.6666C27.4456 30.6666 29.8334 28.2788 29.8334 25.3333C29.8334 22.8481 28.1337 20.76 25.8334 20.1679V18.6666C25.8334 16.4574 24.0426 14.6666 21.8334 14.6666H17.8334V11.8319Z" fill="white"/>
</svg>
