<svg width="33" height="32" viewBox="0 0 33 32" fill="none" xmlns="http://www.w3.org/2000/svg">
<path fill-rule="evenodd" clip-rule="evenodd" d="M16.4999 1.33325C8.39974 1.33325 1.83325 7.89974 1.83325 15.9999C1.83325 24.1001 8.39974 30.6666 16.4999 30.6666C24.6001 30.6666 31.1666 24.1001 31.1666 15.9999C31.1666 7.89974 24.6001 1.33325 16.4999 1.33325ZM23.3408 9.15906C21.7953 7.61354 19.2895 7.61354 17.744 9.15906C17.2233 9.67976 17.2233 10.524 17.7439 11.0447C18.2647 11.5654 19.1089 11.5654 19.6296 11.0447C20.1337 10.5406 20.951 10.5406 21.4552 11.0447C21.9593 11.5488 21.9593 12.3661 21.4552 12.8703L17.744 16.5815C17.4509 16.8745 17.0532 16.9981 16.6673 16.9492C15.9367 16.8568 15.2696 17.3741 15.1771 18.1047C15.0847 18.8352 15.602 19.5024 16.3326 19.5948C17.5011 19.7427 18.729 19.3677 19.6296 18.4671L23.3408 14.7559C24.8863 13.2104 24.8863 10.7046 23.3408 9.15906ZM16.6673 12.405C15.4988 12.2572 14.2709 12.6322 13.3703 13.5328L9.65906 17.244C8.11354 18.7895 8.11354 21.2953 9.65906 22.8408C11.2046 24.3863 13.7104 24.3863 15.2559 22.8408C15.7766 22.3201 15.7766 21.4759 15.2559 20.9552C14.7352 20.4345 13.891 20.4345 13.3703 20.9552C12.8661 21.4593 12.0488 21.4593 11.5447 20.9552C11.0406 20.451 11.0406 19.6337 11.5447 19.1296L15.2559 15.4184C15.549 15.1253 15.9466 15.0018 16.3326 15.0506C17.0631 15.143 17.7303 14.6257 17.8227 13.8952C17.9151 13.1646 17.3978 12.4975 16.6673 12.405Z" fill="white"/>
</svg>
