<svg width="79" height="22" viewBox="0 0 79 22" fill="none" xmlns="http://www.w3.org/2000/svg">
<path d="M74.1933 10.496L78.3499 21.5C77.1249 21.3251 75.9006 21.1059 74.654 20.9085L72.3125 14.8284L69.9066 20.4066C68.7257 20.2092 67.5658 20.1434 66.3848 19.9901L70.6066 10.3652L66.7775 0.5H70.3216L72.465 6.01182L74.7624 0.5H78.3493L74.1933 10.496ZM63.979 0.5H60.7632V19.575C61.8132 19.6408 62.9065 19.6842 63.979 19.8151V0.5ZM57.9849 19.356C55.054 19.1592 52.1223 18.9849 49.1257 18.9184V0.500085H52.4066V15.8125C54.2882 15.8559 56.1691 16.0086 57.9849 16.096V19.356ZM45.6249 7.95988V11.2408H41.1408V18.7H37.904V0.5H47.0915V3.78089H41.1415V7.95997H45.6256L45.6249 7.95988ZM32.3908 3.78089V18.875C31.2967 18.875 30.1816 18.875 29.1092 18.9184V3.78089H25.7184V0.5H35.8025V3.78089H32.3908ZM22.1751 11.4151C20.7316 11.4151 19.025 11.4151 17.8 11.4816V16.3592C19.725 16.2276 21.65 16.075 23.5966 16.0092V19.1592L14.5191 19.8816V0.5H23.596V3.78089H17.7999V8.19998C19.069 8.19998 21.0157 8.13423 22.1749 8.13423V11.4158L22.1751 11.4151ZM3.99595 9.57759V21.0401C2.81575 21.1717 1.76503 21.325 0.649902 21.5V0.5H3.77825L8.04344 12.4225V0.5H11.325V20.1434C10.1658 20.3408 8.98422 20.4066 7.73751 20.5809L3.99595 9.57759Z" fill="white"/>
</svg>
