<svg width="27" height="28" viewBox="0 0 27 28" fill="none" xmlns="http://www.w3.org/2000/svg">
<path d="M7.77692 6.3913C8.02681 5.86912 8.16675 5.28428 8.16675 4.66675C8.16675 2.45761 6.37589 0.666748 4.16675 0.666748C1.95761 0.666748 0.166748 2.45761 0.166748 4.66675C0.166748 6.87589 1.95761 8.66675 4.16675 8.66675C4.78428 8.66675 5.36912 8.52681 5.8913 8.27692L7.93794 10.3236C7.23992 11.3775 6.83342 12.6413 6.83342 14.0001C6.83342 15.3589 7.23992 16.6227 7.93794 17.6766L6.19081 19.4237C5.9705 19.3648 5.73896 19.3334 5.50008 19.3334C4.02732 19.3334 2.83342 20.5273 2.83342 22.0001C2.83341 23.4728 4.02732 24.6667 5.50008 24.6667C6.97284 24.6667 8.16675 23.4728 8.16675 22.0001C8.16675 21.7612 8.13534 21.5297 8.07642 21.3094L9.82356 19.5622C10.8775 20.2602 12.1413 20.6667 13.5001 20.6667C14.8589 20.6667 16.1227 20.2602 17.1766 19.5622L19.2232 21.6089C18.9734 22.131 18.8334 22.7159 18.8334 23.3334C18.8334 25.5426 20.6243 27.3334 22.8334 27.3334C25.0426 27.3334 26.8334 25.5426 26.8334 23.3334C26.8334 21.1243 25.0426 19.3334 22.8334 19.3334C22.2159 19.3334 21.631 19.4734 21.1089 19.7232L19.0622 17.6766C19.7602 16.6227 20.1667 15.3589 20.1667 14.0001C20.1667 12.6413 19.7602 11.3775 19.0622 10.3236L20.8094 8.57642C21.0297 8.63534 21.2612 8.66675 21.5001 8.66675C22.9728 8.66675 24.1667 7.47284 24.1667 6.00008C24.1667 4.52732 22.9728 3.33341 21.5001 3.33341C20.0273 3.33341 18.8334 4.52732 18.8334 6.00008C18.8334 6.23896 18.8648 6.4705 18.9237 6.69081L17.1766 8.43794C16.1227 7.73992 14.8589 7.33342 13.5001 7.33342C12.1413 7.33342 10.8775 7.73992 9.82356 8.43794L7.77692 6.3913Z" fill="white"/>
</svg>
