<svg width="27" height="30" viewBox="0 0 27 30" fill="none" xmlns="http://www.w3.org/2000/svg">
<path d="M21.5001 10.9999C24.4456 10.9999 26.8334 8.6121 26.8334 5.66658C26.8334 2.72107 24.4456 0.333252 21.5001 0.333252C18.5546 0.333252 16.1667 2.72107 16.1667 5.66658C16.1667 6.16954 16.2364 6.65624 16.3665 7.11757L9.28879 11.2462C8.3223 10.2708 6.98175 9.66658 5.50008 9.66658C2.55456 9.66658 0.166748 12.0544 0.166748 14.9999C0.166748 17.9454 2.55456 20.3333 5.50008 20.3333C6.98175 20.3333 8.3223 19.7291 9.28879 18.7536L16.3665 22.8823C16.2364 23.3436 16.1667 23.8303 16.1667 24.3333C16.1667 27.2788 18.5546 29.6666 21.5001 29.6666C24.4456 29.6666 26.8334 27.2788 26.8334 24.3333C26.8334 21.3877 24.4456 18.9999 21.5001 18.9999C20.0184 18.9999 18.6779 19.6041 17.7114 20.5796L10.6337 16.4509C10.7638 15.9896 10.8334 15.5029 10.8334 14.9999C10.8334 14.497 10.7638 14.0103 10.6337 13.5489L17.7114 9.42027C18.6779 10.3957 20.0184 10.9999 21.5001 10.9999Z" fill="white"/>
</svg>
