<svg width="23" height="21" viewBox="0 0 23 21" fill="none" xmlns="http://www.w3.org/2000/svg">
<path d="M17.5572 9.27614L9.35411 17.4792C8.09886 15.2472 6.25278 13.4011 4.02077 12.1459L14.3248 1.84182C14.8528 1.3138 15.1169 1.0498 15.4213 0.950878C15.6891 0.863867 15.9775 0.863867 16.2453 0.950878C16.5498 1.0498 16.8138 1.31381 17.3418 1.84183L19.6582 4.15818C20.1862 4.6862 20.4502 4.95021 20.5491 5.25465C20.6361 5.52244 20.6361 5.8109 20.5491 6.07869C20.4502 6.38313 20.1862 6.64714 19.6582 7.17516L19.4428 7.39052L21.6381 9.58579C22.4191 10.3668 22.4191 11.6332 21.6381 12.4142L18.1095 15.9428C17.5888 16.4635 16.7446 16.4635 16.2239 15.9428C15.7032 15.4221 15.7032 14.5779 16.2239 14.0572L19.281 11L17.5572 9.27614Z" fill="white"/>
<path d="M2.18147 14.6222L1.18256 17.619C0.748292 18.9217 0.53116 19.5731 0.68563 20.0063C0.820054 20.3833 1.1167 20.6799 1.49366 20.8144C1.92684 20.9688 2.57825 20.7517 3.88102 20.3174L6.87778 19.3185C7.02876 19.2682 7.14805 19.2284 7.24771 19.1931C6.1637 17.0669 4.43307 15.3363 2.30685 14.2523C2.27156 14.3519 2.23179 14.4712 2.18147 14.6222Z" fill="white"/>
</svg>
